REM DIRINDEX 1\2,1\3
REM DIRNAME cjc133,folder01,folder02
TITLE ""
FILE "DISC2Track06.mp3" MP3
  TRACK 01 AUDIO
    TITLE "0:"
    INDEX 01 00:00:00
  TRACK 02 AUDIO
    TITLE "3:cjc133_1936"
    INDEX 01 00:00:19
  TRACK 03 AUDIO
    TITLE "0:"
    INDEX 01 00:01:03
  TRACK 04 AUDIO
    TITLE "2:cjc133_1937"
    INDEX 01 00:01:46
  TRACK 05 AUDIO
    TITLE "2:cjc133_1938"
    INDEX 01 00:03:39
  TRACK 06 AUDIO
    TITLE "2:cjc133_1939"
    INDEX 01 00:06:43
  TRACK 07 AUDIO
    TITLE "0:"
    INDEX 01 00:08:54
  TRACK 08 AUDIO
    TITLE "2:cjc133_1940"
    INDEX 01 00:09:34
  TRACK 09 AUDIO
    TITLE "2:cjc133_1941"
    INDEX 01 00:11:62
  TRACK 10 AUDIO
    TITLE "2:cjc133_1942"
    INDEX 01 00:15:58
  TRACK 11 AUDIO
    TITLE "0:"
    INDEX 01 00:18:25
  TRACK 12 AUDIO
    TITLE "2:cjc133_1943"
    INDEX 01 00:19:01
  TRACK 13 AUDIO
    TITLE "2:cjc133_1944"
    INDEX 01 00:20:61
  TRACK 14 AUDIO
    TITLE "2:cjc133_1945"
    INDEX 01 00:23:48
  TRACK 15 AUDIO
    TITLE "0:"
    INDEX 01 00:25:41
  TRACK 16 AUDIO
    TITLE "2:cjc133_1946"
    INDEX 01 00:26:18
  TRACK 17 AUDIO
    TITLE "2:cjc133_1947"
    INDEX 01 00:28:13
  TRACK 18 AUDIO
    TITLE "2:cjc133_1948"
    INDEX 01 00:31:71
  TRACK 19 AUDIO
    TITLE "0:"
    INDEX 01 00:34:20
  TRACK 20 AUDIO
    TITLE "2:cjc133_1949"
    INDEX 01 00:34:71
  TRACK 21 AUDIO
    TITLE "2:cjc133_1950"
    INDEX 01 00:37:05
  TRACK 22 AUDIO
    TITLE "2:cjc133_1951"
    INDEX 01 00:40:07
  TRACK 23 AUDIO
    TITLE "0:"
    INDEX 01 00:42:06
  TRACK 24 AUDIO
    TITLE "2:cjc133_1952"
    INDEX 01 00:42:59
  TRACK 25 AUDIO
    TITLE "2:cjc133_1953"
    INDEX 01 00:44:36
  TRACK 26 AUDIO
    TITLE "2:cjc133_1954"
    INDEX 01 00:47:52
  TRACK 27 AUDIO
    TITLE "0:"
    INDEX 01 00:49:70
  TRACK 28 AUDIO
    TITLE "2:cjc133_1955"
    INDEX 01 00:50:48
  TRACK 29 AUDIO
    TITLE "2:cjc133_1956"
    INDEX 01 00:52:73
  TRACK 30 AUDIO
    TITLE "2:cjc133_1957"
    INDEX 01 00:56:43
  TRACK 31 AUDIO
    TITLE "0:"
    INDEX 01 00:59:18
  TRACK 32 AUDIO
    TITLE "2:cjc133_1958"
    INDEX 01 00:59:71
  TRACK 33 AUDIO
    TITLE "2:cjc133_1959"
    INDEX 01 01:01:56
  TRACK 34 AUDIO
    TITLE "2:cjc133_1960"
    INDEX 01 01:04:60
  TRACK 35 AUDIO
    TITLE "0:"
    INDEX 01 01:07:00
  TRACK 36 AUDIO
    TITLE "2:cjc133_1961"
    INDEX 01 01:07:53
  TRACK 37 AUDIO
    TITLE "2:cjc133_1962"
    INDEX 01 01:09:69
  TRACK 38 AUDIO
    TITLE "2:cjc133_1963"
    INDEX 01 01:13:55
  TRACK 39 AUDIO
    TITLE "0:"
    INDEX 01 01:16:14
  TRACK 40 AUDIO
    TITLE "2:cjc133_1964"
    INDEX 01 01:16:61
  TRACK 41 AUDIO
    TITLE "2:cjc133_1965"
    INDEX 01 01:18:56
  TRACK 42 AUDIO
    TITLE "2:cjc133_1966"
    INDEX 01 01:22:58
  TRACK 43 AUDIO
    TITLE "0:"
    INDEX 01 01:25:33
  TRACK 44 AUDIO
    TITLE "2:cjc133_1967"
    INDEX 01 01:26:07
  TRACK 45 AUDIO
    TITLE "2:cjc133_1968"
    INDEX 01 01:28:10
  TRACK 46 AUDIO
    TITLE "2:cjc133_1969"
    INDEX 01 01:31:69
  TRACK 47 AUDIO
    TITLE "0:"
    INDEX 01 01:34:34
  TRACK 48 AUDIO
    TITLE "2:cjc133_1970"
    INDEX 01 01:35:10
  TRACK 49 AUDIO
    TITLE "2:cjc133_1971"
    INDEX 01 01:37:15
  TRACK 50 AUDIO
    TITLE "2:cjc133_1972"
    INDEX 01 01:40:54
  TRACK 51 AUDIO
    TITLE "0:"
    INDEX 01 01:43:17
  TRACK 52 AUDIO
    TITLE "2:cjc133_1973"
    INDEX 01 01:43:68
  TRACK 53 AUDIO
    TITLE "2:cjc133_1974"
    INDEX 01 01:45:30
  TRACK 54 AUDIO
    TITLE "2:cjc133_1975"
    INDEX 01 01:48:20
  TRACK 55 AUDIO
    TITLE "0:"
    INDEX 01 01:50:17
  TRACK 56 AUDIO
    TITLE "2:cjc133_1976"
    INDEX 01 01:50:70
  TRACK 57 AUDIO
    TITLE "2:cjc133_1977"
    INDEX 01 01:52:69
  TRACK 58 AUDIO
    TITLE "2:cjc133_1978"
    INDEX 01 01:55:73
  TRACK 59 AUDIO
    TITLE "0:"
    INDEX 01 01:58:11
  TRACK 60 AUDIO
    TITLE "2:cjc133_1979"
    INDEX 01 01:58:62
  TRACK 61 AUDIO
    TITLE "2:cjc133_1980"
    INDEX 01 02:00:51
  TRACK 62 AUDIO
    TITLE "2:cjc133_1981"
    INDEX 01 02:04:06
  TRACK 63 AUDIO
    TITLE "0:"
    INDEX 01 02:06:38
